<?xml version="1.0" encoding="utf-8"?>
<!-- Generator: Adobe Illustrator 26.2.1, SVG Export Plug-In . SVG Version: 6.00 Build 0)  -->
<svg version="1.1" id="Capa_1" xmlns="http://www.w3.org/2000/svg" xmlns:xlink="http://www.w3.org/1999/xlink" x="0px" y="0px"
	 viewBox="0 0 40 40" style="enable-background:new 0 0 40 40;" xml:space="preserve">
<style type="text/css">
	.st0{fill:#F9F9F9;}
</style>
<circle class="st0" cx="20" cy="20" r="20"/>
<path d="M20,33.4L20,33.4c-0.8,0-1.4-0.6-1.4-1.4V8c0-0.8,0.6-1.4,1.4-1.4h0c0.8,0,1.4,0.6,1.4,1.4v24C21.4,32.8,20.8,33.4,20,33.4z
	"/>
<path d="M6.6,20L6.6,20c0-0.8,0.6-1.4,1.4-1.4h24c0.8,0,1.4,0.6,1.4,1.4v0c0,0.8-0.6,1.4-1.4,1.4H8C7.2,21.4,6.6,20.8,6.6,20z"/>
</svg>
