<?xml version="1.0" encoding="UTF-8"?><svg xmlns="http://www.w3.org/2000/svg" viewBox="0 0 40 40"><defs><style>.c{fill:#fff;}</style></defs><g id="a"/><g id="b"><g><path class="c" d="M35.25,19.18l-7.18-8.2L20.46,2.28c-.24-.28-.68-.28-.93,0l-7.61,8.69-7.18,8.2c-.35,.4-.07,1.02,.46,1.02h3.23v17.72H31.55V20.2h3.23c.53,0,.81-.62,.46-1.02Zm-11.4,11.37h-7.7v-5.78h7.7v5.78Z"/><path d="M31.55,38.67H8.45c-.41,0-.75-.34-.75-.75V20.95h-2.49c-.54,0-1.02-.31-1.24-.8-.22-.49-.14-1.05,.22-1.46L18.97,1.79c.26-.3,.63-.47,1.03-.47s.77,.17,1.03,.47l14.79,16.9h0c.36,.41,.44,.97,.22,1.46-.22,.49-.7,.8-1.24,.8h-2.49v16.97c0,.41-.34,.75-.75,.75Zm-22.35-1.5H30.8V20.2c0-.41,.34-.75,.75-.75h2.94L20,2.89,5.51,19.45h2.94c.41,0,.75,.34,.75,.75v16.97Zm25.49-17.5h0Zm-10.83,11.63h-7.7c-.41,0-.75-.34-.75-.75v-5.78c0-.41,.34-.75,.75-.75h7.7c.41,0,.75,.34,.75,.75v5.78c0,.41-.34,.75-.75,.75Zm-6.95-1.5h6.2v-4.28h-6.2v4.28Z"/></g></g></svg>