<?xml version="1.0" encoding="UTF-8"?><svg xmlns="http://www.w3.org/2000/svg" viewBox="0 0 223.5 198.81"><defs><style>.c,.d{fill:#fff;}.c,.e{stroke:#000;stroke-linecap:round;stroke-linejoin:round;stroke-width:3px;}.e{fill:aqua;}</style></defs><g id="a"/><g id="b"><g><path class="c" d="M220.82,105.47c0-21.73-13.91-40.21-33.31-47.03,.05-.93,.08-1.87,.08-2.82,0-27.53-22.32-49.85-49.85-49.85-23.63,0-43.4,16.44-48.54,38.51-5.18-3.33-11.32-5.28-17.93-5.28-18.35,0-33.23,14.88-33.23,33.23,0,.28,.03,.55,.04,.83-18.98,3.83-33.27,20.6-33.27,40.71,0,.64,.02,1.27,.05,1.89,0,.2-.05,.4-.05,.6v14.12H220.82v-23.78c0-.14-.02-.27-.02-.41,0-.25,.02-.49,.02-.74Z"/><path class="c" d="M112.82,103.39c0-4.97,4.03-9,9-9s9,4.03,9,9"/><path class="c" d="M94.82,121.39h0c0-4.97,4.03-9,9-9h36c4.97,0,9,4.03,9,9h0"/><path class="c" d="M103.82,76.39c0-9.94-8.06-18-18-18"/><path class="c" d="M103.82,50.78h9v27c0,9.93-8.07,18-18,18h0c-9.93,0-18-8.07-18-18h0c0-14.9,12.1-27,27-27Z"/><path d="M96.26,50.78h7.56v27c0,4.97-4.03,9-9,9h0c-4.97,0-9-4.03-9-9v-16.56c0-5.76,4.68-10.44,10.44-10.44Z"/><path class="d" d="M98.11,68.78l-7.79-4.5-2.87-1.66c-2.19-1.26-4.93,.32-4.93,2.84v12.31l7.79-4.5,7.79-4.5Z"/><path class="e" d="M85.82,95.78c0-4.97-4.03-9-9-9s-9,4.03-9,9"/><path class="c" d="M157.82,76.39c0-9.94-8.06-18-18-18"/><path class="c" d="M157.82,50.78h9v27c0,9.93-8.07,18-18,18h0c-9.93,0-18-8.07-18-18h0c0-14.9,12.1-27,27-27Z"/><path d="M150.26,50.78h7.56v27c0,4.97-4.03,9-9,9h0c-4.97,0-9-4.03-9-9v-16.56c0-5.76,4.68-10.44,10.44-10.44Z"/><path class="d" d="M152.11,68.78l-7.79-4.5-2.87-1.66c-2.19-1.26-4.93,.32-4.93,2.84v12.31l7.79-4.5,7.79-4.5Z"/><path class="e" d="M175.82,95.78c0-4.97-4.03-9-9-9s-9,4.03-9,9"/><path class="e" d="M121.82,185.78c0,4.97-4.03,9-9,9s-9-4.03-9-9,9-18,9-18c0,0,9,13.03,9,18Z"/><path class="e" d="M31.82,185.78c0,4.97-4.03,9-9,9s-9-4.03-9-9,9-18,9-18c0,0,9,13.03,9,18Z"/><path class="e" d="M211.82,185.78c0,4.97-4.03,9-9,9s-9-4.03-9-9,9-18,9-18c0,0,9,13.03,9,18Z"/><path class="e" d="M76.82,158.78c0,4.97-4.03,9-9,9s-9-4.03-9-9,9-18,9-18c0,0,9,13.03,9,18Z"/><path class="e" d="M166.82,158.78c0,4.97-4.03,9-9,9s-9-4.03-9-9,9-18,9-18c0,0,9,13.03,9,18Z"/></g></g></svg>