<?xml version="1.0" encoding="UTF-8"?><svg xmlns="http://www.w3.org/2000/svg" viewBox="0 0 40 40"><defs><style>.c{fill:#fff;}</style></defs><g id="a"/><g id="b"><g><path class="c" d="M20,1.09c-6.38,0-11.55,5.17-11.55,11.55,0,5.53,8.67,21.71,10.99,25.94,.24,.44,.88,.44,1.12,0,2.31-4.22,10.99-20.41,10.99-25.94,0-6.38-5.17-11.55-11.55-11.55Zm0,15.4c-2.13,0-3.85-1.72-3.85-3.85s1.72-3.85,3.85-3.85,3.85,1.72,3.85,3.85-1.72,3.85-3.85,3.85Z"/><path d="M20,39.66c-.51,0-.97-.28-1.22-.72-2.6-4.74-11.08-20.65-11.08-26.3C7.7,5.86,13.22,.34,20,.34s12.3,5.52,12.3,12.3c0,5.65-8.48,21.56-11.08,26.3-.24,.45-.71,.72-1.22,.72ZM20,1.84c-5.96,0-10.8,4.85-10.8,10.8,0,4.18,5.56,15.83,10.8,25.4,5.24-9.57,10.8-21.22,10.8-25.4,0-5.96-4.85-10.8-10.8-10.8Zm0,15.4c-2.54,0-4.6-2.06-4.6-4.6s2.06-4.6,4.6-4.6,4.6,2.06,4.6,4.6-2.06,4.6-4.6,4.6Zm0-7.7c-1.71,0-3.1,1.39-3.1,3.1s1.39,3.1,3.1,3.1,3.1-1.39,3.1-3.1-1.39-3.1-3.1-3.1Z"/></g></g></svg>