<?xml version="1.0" encoding="UTF-8"?><svg xmlns="http://www.w3.org/2000/svg" viewBox="0 0 40 40"><defs><style>.c{fill:#fff;}</style></defs><g id="a"/><g id="b"><g><path class="c" d="M33.68,34.92l-8.23-14.26c2.21-2.1,3.59-5.07,3.59-8.36C29.03,5.92,23.86,.75,17.48,.75S5.93,5.92,5.93,12.3s5.17,11.55,11.55,11.55c1.01,0,1.99-.13,2.92-.37l8.27,14.33c.8,1.38,2.56,1.85,3.94,1.06s1.85-2.56,1.06-3.94Zm-16.2-14.92c-4.25,0-7.7-3.45-7.7-7.7s3.45-7.7,7.7-7.7,7.7,3.45,7.7,7.7-3.45,7.7-7.7,7.7Z"/><path d="M31.19,40c-1.26,0-2.48-.65-3.16-1.82l-8-13.85c-.84,.18-1.69,.27-2.55,.27-6.78,0-12.3-5.52-12.3-12.3S10.7,0,17.48,0s12.3,5.52,12.3,12.3c0,3.2-1.2,6.19-3.4,8.49l7.94,13.76c.49,.84,.61,1.82,.36,2.76-.25,.94-.85,1.72-1.69,2.21-.57,.33-1.2,.49-1.81,.49Zm-10.78-17.27c.26,0,.51,.14,.65,.37l8.27,14.33c.59,1.02,1.9,1.37,2.92,.78,.49-.29,.85-.75,1-1.3,.15-.55,.07-1.13-.21-1.62h0l-8.23-14.26c-.17-.3-.12-.68,.13-.92,2.16-2.06,3.35-4.84,3.35-7.82,0-5.96-4.85-10.8-10.8-10.8S6.68,6.34,6.68,12.3s4.85,10.8,10.8,10.8c.92,0,1.84-.12,2.73-.35,.06-.02,.13-.02,.19-.02Zm-2.92-1.98c-4.66,0-8.45-3.79-8.45-8.45S12.82,3.85,17.48,3.85s8.45,3.79,8.45,8.45-3.79,8.45-8.45,8.45Zm0-15.4c-3.83,0-6.95,3.12-6.95,6.95s3.12,6.95,6.95,6.95,6.95-3.12,6.95-6.95-3.12-6.95-6.95-6.95Z"/></g></g></svg>