<?xml version="1.0" encoding="utf-8"?>
<!-- Generator: Adobe Illustrator 26.2.1, SVG Export Plug-In . SVG Version: 6.00 Build 0)  -->
<svg version="1.1" id="Capa_1" xmlns="http://www.w3.org/2000/svg" xmlns:xlink="http://www.w3.org/1999/xlink" x="0px" y="0px"
	 viewBox="0 0 40 40" style="enable-background:new 0 0 40 40;" xml:space="preserve">
<style type="text/css">
	.st0{fill:#F9F9F9;}
</style>
<circle class="st0" cx="20" cy="20" r="20"/>
<path d="M27.2,6.6c-2.3,0-4.2,1.9-4.2,4.2c0,0.3,0,0.5,0.1,0.8l-9.9,5.8c-0.7-0.6-1.6-1-2.7-1c-2.3,0-4.2,1.9-4.2,4.2
	s1.9,4.2,4.2,4.2c1,0,1.9-0.4,2.7-1l9.9,5.8c0,0.3-0.1,0.5-0.1,0.8c0,2.3,1.9,4.2,4.2,4.2s4.2-1.9,4.2-4.2S29.5,26,27.2,26
	c-1,0-1.9,0.4-2.7,1l-9.9-5.8c0-0.3,0.1-0.5,0.1-0.8c0-0.3,0-0.5-0.1-0.8l9.9-5.8c0.7,0.6,1.6,1,2.7,1c2.3,0,4.2-1.9,4.2-4.2
	S29.5,6.6,27.2,6.6z M27.2,9.4c0.8,0,1.4,0.6,1.4,1.4s-0.6,1.4-1.4,1.4c-0.8,0-1.4-0.6-1.4-1.4S26.4,9.4,27.2,9.4z M10.6,19.1
	c0.8,0,1.4,0.6,1.4,1.4c0,0.8-0.6,1.4-1.4,1.4s-1.4-0.6-1.4-1.4C9.2,19.7,9.8,19.1,10.6,19.1z M27.2,28.7c0.8,0,1.4,0.6,1.4,1.4
	c0,0.8-0.6,1.4-1.4,1.4c-0.8,0-1.4-0.6-1.4-1.4C25.8,29.3,26.4,28.7,27.2,28.7z"/>
</svg>
